<?xml version="1.0" encoding="UTF-8"?>
<svg data-name="Layer 2" fill="rgb(198, 157, 113)" xmlns="http://www.w3.org/2000/svg" viewBox="0 0 487.96 73.86">
  <g data-name="Layer 1">
    <g>
      <path d="m8.06,29.59V1.16H0v71.03h42.59v-33.3l-9.3-9.3H8.06Zm21.55,8.06l4.92,4.92v21.55H8.06v-26.47h21.55Z"/>
      <path d="m60.04,25.53v8.06h25.55l.86.86v9.36h-31.33l-5.23,5.23v17.91l5.23,5.23h39.39V30.77l-5.23-5.23h-29.23Zm26.41,26.34v12.25h-27.64l-.86-.86v-10.53l.86-.86h27.64Z"/>
      <path d="m109.87,29.59V1.16h-8.06v71.03h42.59v-33.3l-9.3-9.3h-25.23Zm21.55,8.06l4.92,4.92v21.55h-26.47v-26.47h21.55Z"/>
      <path d="m161.85,25.53v8.06h25.55l.86.86v9.36h-31.33l-5.23,5.23v17.91l5.23,5.23h39.39V30.77l-5.23-5.23h-29.23Zm26.41,26.34v12.25h-27.64l-.86-.86v-10.53l.86-.86h27.64Z"/>
      <polygon points="214.57 45.84 211.67 42.95 211.67 42.58 216.6 37.66 246.21 37.66 246.21 29.59 212.91 29.59 203.61 38.89 203.61 46.64 210.88 53.91 235.25 53.91 240.17 58.83 240.17 59.2 235.25 64.12 203.61 64.12 203.61 72.19 238.94 72.19 248.24 62.89 248.24 55.14 238.94 45.84 214.57 45.84"/>
      <polygon points="263.59 29.59 263.59 1.16 255.53 1.16 255.53 72.19 263.59 72.19 263.59 37.66 285.14 37.66 290.06 42.58 290.06 72.19 298.12 72.19 298.12 38.89 288.83 29.59 263.59 29.59"/>
      <path d="m314.72,29.59l-9.3,9.3v24l9.3,9.3h28.06l9.3-9.3v-24l-9.3-9.3h-28.06Zm3.69,34.53l-4.92-4.92v-16.62l4.92-4.92h20.69l4.92,4.92v16.62l-4.92,4.92h-20.69Z"/>
      <path d="m368.67,29.59l-9.3,9.3v24l9.3,9.3h28.06l9.3-9.3v-24l-9.3-9.3h-28.06Zm3.69,34.53l-4.92-4.92v-16.62l4.92-4.92h20.69l4.92,4.92v16.62l-4.92,4.92h-20.69Z"/>
      <polygon points="436.95 73.86 436.95 62.11 425.59 50.75 436.95 39.39 436.95 27.64 413.84 50.75 436.95 73.86"/>
      <polygon points="487.96 0 478.41 0 442.89 71.03 452.44 71.03 487.96 0"/>
    </g>
  </g>
</svg>
