<?xml version="1.0" encoding="UTF-8"?>
<svg data-name="Layer 2" xmlns="http://www.w3.org/2000/svg" viewBox="0 0 482.72 68.19">
  <g data-name="Layer 1">
    <g>
      <path d="m4.06,29.59V1.16H0v67.03h38.59v-30.47l-8.12-8.12H4.06Zm30.47,34.53H4.06v-30.47h24.38l6.09,6.09v24.38Z"/>
      <path d="m60.04,25.53v4.06h24.38l2.03,2.03v12.19h-32.5l-4.06,4.06v16.25l4.06,4.06h36.56V29.59l-4.06-4.06h-26.41Zm26.41,38.59h-30.47l-2.03-2.03v-12.19l2.03-2.03h30.47v16.25Z"/>
      <path d="m105.87,29.59V1.16h-4.06v67.03h38.59v-30.47l-8.12-8.12h-26.41Zm30.47,34.53h-30.47v-30.47h24.38l6.09,6.09v24.38Z"/>
      <path d="m161.85,25.53v4.06h24.38l2.03,2.03v12.19h-32.5l-4.06,4.06v16.25l4.06,4.06h36.56V29.59l-4.06-4.06h-26.41Zm26.41,38.59h-30.47l-2.03-2.03v-12.19l2.03-2.03h30.47v16.25Z"/>
      <polygon points="211.74 45.84 207.67 41.78 207.67 39.75 213.77 33.66 242.21 33.66 242.21 29.59 211.74 29.59 203.61 37.72 203.61 43.81 209.71 49.91 234.08 49.91 240.17 56 240.17 58.03 234.08 64.12 203.61 64.12 203.61 68.19 236.11 68.19 244.24 60.06 244.24 53.97 236.11 45.84 211.74 45.84"/>
      <polygon points="259.59 29.59 259.59 1.16 255.53 1.16 255.53 68.19 259.59 68.19 259.59 33.66 283.97 33.66 290.06 39.75 290.06 68.19 294.12 68.19 294.12 37.72 286 29.59 259.59 29.59"/>
      <path d="m313.54,29.59l-8.12,8.12v22.34l8.12,8.12h26.41l8.12-8.12v-22.34l-8.12-8.12h-26.41Zm30.47,28.44l-6.09,6.09h-22.34l-6.09-6.09v-18.28l6.09-6.09h22.34l6.09,6.09v18.28Z"/>
      <path d="m367.49,29.59l-8.12,8.12v22.34l8.12,8.12h26.41l8.12-8.12v-22.34l-8.12-8.12h-26.41Zm30.47,28.44l-6.09,6.09h-22.34l-6.09-6.09v-18.28l6.09-6.09h22.34l6.09,6.09v18.28Z"/>
      <polygon points="432.95 67.03 432.95 60.94 420.77 48.75 432.95 36.56 432.95 30.47 414.67 48.75 432.95 67.03"/>
      <polygon points="444.13 67.03 449.2 67.03 482.72 0 477.64 0 444.13 67.03"/>
    </g>
  </g>
</svg>
